# xmcd CD database file
#
# Track frame offsets:
#	150
#	5962
#	27937
#	47737
#	71650
#	91800
#	107775
#	129637
#	150975
#	169912
#	193450
#	211275
#
# Disc length: 3097 seconds
#
# Revision: 3
# Processed by: cddbd v1.5.1PL2 Copyright (c) Steve Scherf et al.
# Submitted via: CDex 1.60beta1-cs1
#
DISCID=a80c170c
DTITLE=The Gardens - HORIZON (millennium album)
DYEAR=2000
DGENRE=JPop
TTITLE0=HORIZON (interlude)
TTITLE1=Morning Light
TTITLE2=Holiday (Japanese Ver.)
TTITLE3=We must go on
TTITLE4=no pain, no gain
TTITLE5=close to you
TTITLE6=Like a Friend ・・・
TTITLE7=潮風の行方
TTITLE8=rush
TTITLE9=サヨナラが消せない恋
TTITLE10=寝顔
TTITLE11=雨音
EXTD=YEAR: 2000
EXTT0=
EXTT1=
EXTT2=
EXTT3=
EXTT4=
EXTT5=
EXTT6=
EXTT7=
EXTT8=
EXTT9=
EXTT10=
EXTT11=
PLAYORDER=
